<svg width="61" height="90" viewBox="0 0 61 90" fill="none" xmlns="http://www.w3.org/2000/svg">
<path d="M1.3047 2.06655C1.48621 1.25825 2.28861 0.750143 3.09691 0.931657C3.90521 1.11317 4.41331 1.91557 4.2318 2.72387L1.3047 2.06655ZM60.5995 80.5015C61.0137 81.2189 60.7679 82.1363 60.0505 82.5506L48.3594 89.3009C47.6419 89.7151 46.7245 89.4693 46.3103 88.7519C45.8961 88.0345 46.1419 87.1171 46.8593 86.7029L57.2514 80.7026L51.2511 70.3104C50.8369 69.593 51.0827 68.6756 51.8001 68.2614C52.5175 67.8471 53.4349 68.0929 53.8491 68.8104L60.5995 80.5015ZM4.2318 2.72387C2.07139 12.3444 4.83735 28.6644 13.8084 44.1407C22.7411 59.5508 37.7115 73.9146 59.6887 79.8026L58.9123 82.7004C36.0301 76.5699 20.4658 61.6076 11.213 45.6452C1.99847 29.749 -1.07201 12.6503 1.3047 2.06655L4.2318 2.72387Z" fill="white"/>
</svg>
