<svg width="32" height="31" viewBox="0 0 32 31" fill="none" xmlns="http://www.w3.org/2000/svg">
<path d="M19.2376 5.41411C18.4995 5.2778 17.8215 5.74869 17.681 6.46896C17.5405 7.18924 18.013 7.89247 18.7311 8.03343C20.8931 8.45475 22.5625 10.1276 22.9857 12.2962V12.2978C23.1061 12.922 23.6559 13.3759 24.289 13.3759C24.374 13.3759 24.4589 13.3681 24.5454 13.3526C25.2635 13.2086 25.7361 12.5069 25.5955 11.7851C24.9639 8.54614 22.4699 6.04454 19.2376 5.41411Z" fill="white"/>
<path d="M19.1582 0.0122915C18.8123 -0.0372758 18.4649 0.0649567 18.1884 0.284912C17.9043 0.507964 17.7267 0.830152 17.6881 1.19106C17.6062 1.92063 18.1328 2.5805 18.8617 2.66259C23.8884 3.22332 27.7955 7.13759 28.3607 12.178C28.4364 12.8533 29.0032 13.3629 29.6796 13.3629C29.7305 13.3629 29.7799 13.3598 29.8309 13.3536C30.1845 13.3149 30.4996 13.1399 30.722 12.8611C30.9428 12.5822 31.0432 12.2353 31.003 11.8806C30.2988 5.59171 25.4296 0.71088 19.1582 0.0122915Z" fill="white"/>
<path fill-rule="evenodd" clip-rule="evenodd" d="M14.0051 17.0064C20.1908 23.188 21.5941 16.0366 25.5325 19.9708C29.3295 23.7652 31.5118 24.5254 26.7011 29.3329C26.0985 29.817 22.2699 35.6409 8.81485 22.1949C-4.64185 8.74722 1.18095 4.91621 1.66536 4.31402C6.48773 -0.506767 7.23514 1.68738 11.0321 5.48179C14.9706 9.41761 7.81942 10.8249 14.0051 17.0064Z" fill="white"/>
</svg>
